<?xml version="1.0" encoding="UTF-8"?>
<svg id="Layer_1" data-name="Layer 1" xmlns="http://www.w3.org/2000/svg" viewBox="0 0 1080 700">
  <defs>
    <style>
      .cls-1 {
        fill: #490f3a;
        stroke-width: 0px;
      }
    </style>
  </defs>
  <path class="cls-1" d="M287.56,7.16v457.1c0,23.1-4,42.68-12.04,58.72-8.03,16.04-19.57,28.23-34.64,36.56-15.07,8.33-32.56,12.51-52.45,12.51s-38-4.33-54.37-12.98c-16.34-8.68-30.32-21.34-41.86-38.03L3.66,605.72c20.54,26.96,46.36,48.3,77.47,63.99,31.11,15.72,67.2,23.58,108.26,23.58.72,0,1.43,0,2.14,0,13.04-.08,25.51-5.36,34.73-14.58l178.43-178.43c9.01-9.01,14.21-21.12,14.56-33.85.09-3.25.14-6.54.14-9.85V7.16h-131.84Z"/>
  <path class="cls-1" d="M850.12,398.04c28.3-3.53,53.92-10.92,77.05-22.26,33.33-16.39,59.19-39.15,77.5-68.29,18.23-29.25,27.43-63.72,27.43-103.49s-9.2-72.47-27.43-101.99c-18.3-29.52-43.95-52.78-77-69.79-33.03-16.96-71.38-25.52-115.03-25.52h-61.94c-13.19,0-25.85,5.24-35.17,14.57l-152.97,152.99c-9.33,9.33-14.57,21.98-14.57,35.17v473.78h130.92v-282.88h22.68l215.95,282.88h158.8l-226.22-285.17ZM678.91,298.29v-109.78c0-41.38,33.55-74.94,74.91-74.94h47.33c32.01,0,56.88,8.83,74.54,26.44,17.66,17.66,26.49,39.64,26.49,65.93,0,28.85-8.83,51.48-26.49,67.85-17.66,16.39-42.53,24.5-74.54,24.5h-122.24Z"/>
</svg>