<?xml version="1.0" encoding="UTF-8"?>
<svg id="Layer_1" data-name="Layer 1" xmlns="http://www.w3.org/2000/svg" viewBox="0 0 1080 480">
  <defs>
    <style>
      .cls-1 {
        fill: #ea687e;
        stroke-width: 0px;
      }
    </style>
  </defs>
  <path class="cls-1" d="M86.68,6.07v136.97c0,6.92-1.2,12.79-3.61,17.6-2.41,4.81-5.87,8.46-10.38,10.96-4.52,2.5-9.76,3.75-15.72,3.75s-11.39-1.3-16.29-3.89c-4.9-2.6-9.08-6.39-12.54-11.4L1.61,185.44c6.16,8.08,13.89,14.47,23.22,19.18,9.32,4.71,20.14,7.07,32.44,7.07.21,0,.43,0,.64,0,3.91-.02,7.64-1.61,10.41-4.37l53.47-53.47c2.7-2.7,4.26-6.33,4.36-10.14.03-.97.04-1.96.04-2.95V6.07h-39.51Z"/>
  <path class="cls-1" d="M684.85,102.1c-5.87-10.96-13.89-19.61-24.08-25.96-10.19-6.34-21.72-9.51-34.6-9.51-10,0-18.99,2.12-26.96,6.34-4.73,2.5-8.91,5.52-12.54,9.08l-33.39,33.28c-2.81,2.8-4.38,6.6-4.38,10.56v141.15h37.49v-70.55c3.65,3.53,7.88,6.52,12.69,8.98,8.07,4.14,17.1,6.2,27.11,6.2,12.88,0,24.42-3.17,34.6-9.52,10.19-6.34,18.21-14.99,24.08-25.95,5.87-10.96,8.79-23.26,8.79-36.91s-2.93-26.24-8.79-37.2ZM650.54,158.76c-2.99,5.67-7.17,10.09-12.55,13.27-5.38,3.17-11.53,4.75-18.45,4.75s-13.03-1.58-18.31-4.75c-5.29-3.17-9.42-7.59-12.4-13.27-2.98-5.66-4.47-12.25-4.47-19.76s1.49-13.79,4.47-19.46c2.98-5.67,7.16-10.1,12.54-13.27,5.38-3.17,11.44-4.76,18.17-4.76s13.07,1.59,18.45,4.76c5.38,3.17,9.56,7.59,12.55,13.27,2.97,5.67,4.46,12.16,4.46,19.46s-1.49,14.09-4.46,19.76Z"/>
  <path class="cls-1" d="M737.25,47.02c-6.16,0-11.25-2.06-15.28-6.2-4.04-4.13-6.06-9.27-6.06-15.43s2.02-11.05,6.06-15.28c4.04-4.23,9.13-6.34,15.28-6.34s11.49,2.12,15.43,6.34c3.94,4.23,5.91,9.33,5.91,15.28s-1.97,11.3-5.91,15.43c-3.94,4.14-9.08,6.2-15.43,6.2ZM718.22,208.8V69.51h38.07v139.28h-38.07Z"/>
  <path class="cls-1" d="M913.84,120.55v88.24h-37.77v-79.88c0-8.27-2.6-14.99-7.79-20.18-5.19-5.19-11.92-7.79-20.19-7.79-5.38,0-10.19,1.16-14.41,3.46-4.23,2.31-7.55,5.58-9.95,9.81-2.41,4.23-3.61,9.13-3.61,14.7v79.88h-37.78v-82.28c0-3.96,1.57-7.75,4.37-10.55l33.4-33.36c3.44-3.55,7.44-6.57,11.97-9.06,8.36-4.61,17.83-6.92,28.4-6.92s19.33,2.55,27.4,7.64c8.07,5.1,14.42,11.73,19.03,19.9,4.61,8.17,6.92,16.97,6.92,26.38Z"/>
  <path class="cls-1" d="M1040.9,69.51v11.78c-3.51-3.38-7.59-6.25-12.25-8.61-7.98-4.04-17.16-6.05-27.54-6.05-12.5,0-23.75,3.03-33.75,9.08-9.99,6.06-17.83,14.28-23.5,24.66-5.67,10.38-8.5,22.1-8.5,35.18s2.83,24.9,8.5,35.47c5.67,10.58,13.5,18.89,23.5,24.95,9.99,6.05,21.25,9.08,33.75,9.08,10.19,0,19.27-1.97,27.25-5.91,4.64-2.29,8.73-5.13,12.26-8.54v11.57c0,10.58-3.42,18.84-10.24,24.8-6.83,5.95-16.11,8.94-27.83,8.94-9.42,0-17.45-1.69-24.08-5.05-6.63-3.36-12.64-8.21-18.02-14.56l-23.94,23.94c6.73,9.61,15.76,17.06,27.11,22.35,11.34,5.28,24.42,7.93,39.22,7.93s27.87-2.88,39.22-8.65c11.34-5.77,20.23-13.8,26.67-24.08,6.44-10.28,9.66-22.35,9.66-36.19V69.51h-37.49ZM1038.6,153.86c-2.88,5.29-6.88,9.42-11.97,12.4-5.1,2.98-11.1,4.47-18.02,4.47s-12.98-1.54-18.17-4.61c-5.19-3.08-9.23-7.26-12.11-12.54-2.88-5.29-4.33-11.2-4.33-17.74s1.45-12.74,4.33-18.02c2.88-5.29,6.92-9.42,12.11-12.4,5.19-2.98,11.25-4.47,18.17-4.47s12.92,1.49,18.02,4.47c5.09,2.98,9.08,7.07,11.97,12.25,2.88,5.19,4.32,11.25,4.32,18.17s-1.44,12.74-4.32,18.02Z"/>
  <path class="cls-1" d="M107.42,387.6c8.48-1.06,16.16-3.27,23.09-6.67,9.99-4.91,17.74-11.73,23.22-20.47,5.46-8.76,8.22-19.09,8.22-31.01s-2.76-21.72-8.22-30.56c-5.49-8.85-13.17-15.81-23.07-20.91-9.9-5.08-21.39-7.65-34.47-7.65h-18.56c-3.95,0-7.75,1.57-10.54,4.37l-45.84,45.84c-2.79,2.8-4.37,6.59-4.37,10.54v141.97h39.23v-84.77h6.8l64.71,84.77h47.59l-67.79-85.45ZM56.12,357.71v-32.9c0-12.4,10.05-22.46,22.45-22.46h14.18c9.59,0,17.04,2.65,22.34,7.92,5.29,5.29,7.94,11.88,7.94,19.76,0,8.65-2.65,15.43-7.94,20.33-5.29,4.91-12.74,7.34-22.34,7.34h-36.63Z"/>
  <path class="cls-1" d="M213.47,311.29c-6.16,0-11.25-2.06-15.28-6.2-4.04-4.13-6.06-9.27-6.06-15.43s2.02-11.05,6.06-15.28c4.04-4.23,9.13-6.34,15.28-6.34s11.49,2.12,15.43,6.34c3.94,4.23,5.91,9.33,5.91,15.28s-1.97,11.3-5.91,15.43c-3.94,4.14-9.08,6.2-15.43,6.2ZM194.44,473.06v-139.28h38.07v139.28h-38.07Z"/>
  <polygon class="cls-1" points="398.72 333.78 337.59 473.07 310.47 473.07 249.06 333.78 290.58 333.78 324.5 422 358.63 333.78 398.72 333.78"/>
  <path class="cls-1" d="M669.47,345.03l-23.65,27.11c-2.12-2.31-4.67-4.04-7.65-5.19-2.98-1.15-6.39-1.73-10.23-1.73-8.08,0-14.67,2.55-19.76,7.65-5.1,5.1-7.64,12.83-7.64,23.22v76.99h-37.78v-83.13c0-3.94,1.56-7.71,4.33-10.51,10.65-10.71,37.34-37.53,38.72-38.69l.05-.04c7.83-6.54,18.07-9.8,30.72-9.8,6.73,0,12.79,1.11,18.17,3.32,5.38,2.21,10.28,5.81,14.71,10.81Z"/>
  <path class="cls-1" d="M729.87,476.24c-7.89,0-15.62-1.06-23.21-3.17-7.6-2.11-14.56-5.05-20.91-8.8-6.34-3.75-11.82-8.31-16.44-13.7l22.49-22.78c4.8,5.38,12.53,9.42,18.88,12.11,6.34,2.7,11.21,4.04,18.9,4.04,6.15,0,10.81-.86,13.99-2.6,3.17-1.73,4.76-4.33,4.76-7.79,0-3.84-1.69-6.82-5.05-8.94-3.37-2.11-7.74-3.89-13.12-5.33-5.38-1.44-11.01-3.07-16.87-4.9-5.87-1.83-11.49-4.23-16.87-7.21-5.38-2.98-9.76-7.11-13.12-12.4-3.37-5.29-5.05-12.16-5.05-20.62s2.16-16.53,6.49-23.07c4.33-6.53,10.53-11.63,18.6-15.28,8.07-3.65,17.59-5.48,28.55-5.48,11.53,0,21.96,2.02,31.29,6.06,9.32,4.04,17.06,10.09,23.21,18.17l-22.78,22.78c-4.23-5.19-8.99-8.94-14.27-11.25-5.29-2.31-11.01-3.46-17.16-3.46-5.58,0-9.85.86-12.83,2.59-2.98,1.73-4.47,4.14-4.47,7.21,0,3.46,1.68,6.16,5.05,8.07,3.36,1.92,7.74,3.61,13.12,5.05,5.38,1.44,11,3.08,16.87,4.9,5.86,1.83,11.44,4.38,16.73,7.64,5.28,3.27,9.61,7.6,12.98,12.98,3.36,5.38,5.05,12.31,5.05,20.76,0,13.65-4.9,24.47-14.71,32.44-9.8,7.98-23.17,11.97-40.08,11.97Z"/>
  <path class="cls-1" d="M522.15,120.55v88.24h-37.78v-82.18c0-8.08-2.55-14.37-7.64-18.89-5.1-4.51-11.39-6.77-18.89-6.77-4.81,0-9.28,1.01-13.41,3.03-4.14,2.02-7.35,4.96-9.66,8.79-2.3,3.85-3.46,8.47-3.46,13.85v82.18h-37.78v-82.18c0-8.08-2.55-14.37-7.64-18.89-5.1-4.51-11.4-6.77-18.89-6.77-5,0-9.52,1.01-13.55,3.03-4.04,2.02-7.21,4.96-9.52,8.79-2.31,3.85-3.47,8.47-3.47,13.85v82.18h-37.77v-83.29c0-3.96,1.57-7.75,4.38-10.55l33.4-33.34c3.36-3.35,7.21-6.19,11.54-8.5,8.08-4.32,17.2-6.48,27.4-6.48,9.61,0,18.36,2.16,26.24,6.48,6.6,3.62,12.07,8.47,16.38,14.53,4.66-5.9,10.34-10.65,17.07-14.24,8.45-4.52,17.87-6.77,28.25-6.77s19.71,2.16,27.98,6.48c8.27,4.32,14.8,10.53,19.61,18.6,4.8,8.07,7.21,17.69,7.21,28.83Z"/>
  <path class="cls-1" d="M215.33,211.68c-12.31,0-23.21-2.6-32.73-7.79-9.52-5.19-16.97-12.4-22.35-21.63-5.38-9.23-8.07-19.9-8.07-32.01v-80.74h38.07v79.88c0,5.77.96,10.72,2.88,14.85,1.92,4.14,4.8,7.26,8.65,9.37,3.84,2.12,8.36,3.17,13.55,3.17,7.88,0,14.03-2.4,18.46-7.21,4.42-4.8,6.63-11.53,6.63-20.19v-79.88h37.78v80.74c0,12.31-2.64,23.07-7.93,32.3-5.29,9.23-12.69,16.39-22.2,21.48-9.52,5.09-20.43,7.64-32.73,7.64Z"/>
  <path class="cls-1" d="M530.62,364.5c-5.87-10.48-13.94-18.74-24.22-24.8-10.28-6.06-22.16-9.08-35.62-9.08s-26.05,3.22-37.2,9.66c-11.15,6.45-19.94,15.1-26.38,25.96-6.45,10.86-9.67,23.22-9.67,37.06s3.32,26.53,9.95,37.49c6.63,10.96,15.62,19.56,26.96,25.81,11.34,6.25,24.32,9.38,38.93,9.38,11.34,0,21.87-2.02,31.58-6.06,9.7-4.04,17.92-9.99,24.65-17.88l-22.2-22.2c-4.23,4.81-9.23,8.41-15,10.81-5.76,2.4-12.21,3.6-19.32,3.6-7.89,0-14.81-1.68-20.76-5.05-5.96-3.36-10.52-8.17-13.7-14.41-1.26-2.48-2.27-5.14-3.03-7.97l101.8-.25c.76-3.27,1.3-6.2,1.58-8.79.29-2.6.43-5.14.43-7.65,0-13.27-2.93-25.13-8.79-35.61ZM435.61,388.52c.7-2.59,1.62-5.03,2.74-7.3,2.98-6.06,7.26-10.77,12.83-14.13,5.57-3.36,12.11-5.05,19.61-5.05,7.11,0,13.12,1.49,18.03,4.46,4.9,2.99,8.65,7.26,11.25,12.83,1.24,2.68,2.24,5.68,2.97,8.99l-67.43.19Z"/>
</svg>